<?xml version="1.0" encoding="utf-8"?>
<svg version="1.1" id="Layer_1" xmlns="http://www.w3.org/2000/svg" xmlns:xlink="http://www.w3.org/1999/xlink" x="0px" y="0px"
	 width="210px" height="110px" viewBox="0 0 210 110" style="enable-background:new 0 0 210 110;" xml:space="preserve">
<style type="text/css">
	.st0{fill:#D39428;}
	.st1{fill:#614F43;}
	.st2{fill:url(#XMLID_68_);}
	.st3{fill:url(#XMLID_69_);}
	.st4{fill:url(#XMLID_70_);}
	.st5{fill:url(#XMLID_71_);}
	.st6{fill:url(#XMLID_72_);}
	.st7{fill:url(#XMLID_73_);}
	.st8{fill:url(#XMLID_74_);}
	.st9{fill:url(#XMLID_75_);}
	.st10{fill:url(#XMLID_76_);}
	.st11{fill:url(#XMLID_77_);}
	.st12{fill:url(#XMLID_78_);}
	.st13{fill:url(#XMLID_79_);}
	.st14{fill:url(#XMLID_80_);}
</style>
<g id="XMLID_1_">
	<path id="XMLID_2_" class="st0" d="M8.6,97.3c-0.3-0.4-0.7-0.7-1.3-0.9c-0.5-0.2-1.1-0.3-1.8-0.3c-1,0-1.7,0.2-2.2,0.6
		c-0.5,0.4-0.7,0.9-0.7,1.5c0,0.3,0.1,0.6,0.2,0.8c0.1,0.2,0.3,0.4,0.6,0.6s0.6,0.3,1,0.4s0.9,0.2,1.4,0.4c0.6,0.1,1.2,0.3,1.6,0.4
		c0.5,0.2,0.9,0.4,1.2,0.6s0.6,0.5,0.8,0.9c0.2,0.3,0.3,0.8,0.3,1.3c0,0.5-0.1,1-0.3,1.4s-0.5,0.7-0.8,1c-0.4,0.3-0.8,0.4-1.3,0.6
		c-0.5,0.1-1.1,0.2-1.6,0.2c-1.8,0-3.3-0.5-4.6-1.6l0.6-0.9c0.2,0.2,0.4,0.4,0.7,0.6c0.3,0.2,0.6,0.4,0.9,0.5
		c0.3,0.1,0.7,0.3,1.1,0.3s0.8,0.1,1.2,0.1c0.9,0,1.6-0.2,2.1-0.5c0.5-0.3,0.8-0.8,0.8-1.5c0-0.4-0.1-0.6-0.2-0.9s-0.4-0.4-0.6-0.6
		s-0.6-0.3-1.1-0.5s-0.9-0.3-1.5-0.4c-0.6-0.1-1.1-0.3-1.6-0.4c-0.4-0.1-0.8-0.3-1.1-0.6c-0.3-0.2-0.5-0.5-0.7-0.8
		c-0.2-0.3-0.2-0.7-0.2-1.2c0-0.5,0.1-1,0.3-1.4c0.2-0.4,0.5-0.8,0.8-1c0.4-0.3,0.8-0.5,1.3-0.6c0.5-0.1,1-0.2,1.6-0.2
		c0.8,0,1.4,0.1,2,0.3c0.6,0.2,1.1,0.6,1.6,1L8.6,97.3z"/>
	<path id="XMLID_4_" class="st0" d="M16.6,95.2h0.9l4.7,11.4H21l-1.5-3.6h-5.1l-1.5,3.6h-1.2L16.6,95.2z M19.3,102.1L17,96.5
		l-2.3,5.6H19.3z"/>
	<path id="XMLID_7_" class="st0" d="M24.3,100.8c0-0.7,0.1-1.4,0.4-2c0.2-0.7,0.6-1.3,1-1.8c0.5-0.5,1-1,1.7-1.3
		c0.7-0.3,1.4-0.5,2.3-0.5c1,0,1.9,0.2,2.6,0.7c0.7,0.5,1.3,1.1,1.6,1.8L33,98.2c-0.2-0.4-0.4-0.7-0.7-0.9s-0.5-0.5-0.8-0.6
		c-0.3-0.2-0.6-0.3-0.9-0.3c-0.3-0.1-0.6-0.1-0.9-0.1c-0.7,0-1.3,0.1-1.8,0.4s-1,0.6-1.3,1.1s-0.6,1-0.8,1.5
		c-0.2,0.6-0.3,1.1-0.3,1.7c0,0.6,0.1,1.2,0.3,1.8c0.2,0.6,0.5,1.1,0.9,1.5c0.4,0.4,0.8,0.8,1.3,1.1c0.5,0.3,1.1,0.4,1.7,0.4
		c0.3,0,0.6,0,1-0.1c0.3-0.1,0.7-0.2,1-0.4s0.6-0.4,0.9-0.7c0.3-0.3,0.5-0.6,0.7-1l0.9,0.5c-0.2,0.4-0.4,0.8-0.8,1.1
		s-0.7,0.6-1.1,0.8c-0.4,0.2-0.8,0.4-1.3,0.5c-0.5,0.1-0.9,0.2-1.3,0.2c-0.8,0-1.5-0.2-2.1-0.5c-0.7-0.3-1.2-0.8-1.7-1.3
		c-0.5-0.5-0.8-1.2-1.1-1.9C24.4,102.2,24.3,101.5,24.3,100.8z"/>
	<path id="XMLID_11_" class="st0" d="M37.6,106.6V95.2h4.8c0.5,0,0.9,0.1,1.4,0.3c0.4,0.2,0.8,0.5,1.1,0.8c0.3,0.3,0.5,0.7,0.7,1.1
		s0.2,0.9,0.2,1.3c0,0.4-0.1,0.8-0.2,1.2c-0.1,0.4-0.3,0.7-0.5,1c-0.2,0.3-0.5,0.6-0.8,0.8c-0.3,0.2-0.7,0.3-1,0.4l2.8,4.4h-1.3
		l-2.7-4.2h-3.4v4.2H37.6z M38.7,101.4h3.7c0.3,0,0.6-0.1,0.9-0.2c0.3-0.1,0.5-0.3,0.7-0.6c0.2-0.2,0.3-0.5,0.4-0.8
		c0.1-0.3,0.2-0.6,0.2-1c0-0.3-0.1-0.7-0.2-1c-0.1-0.3-0.3-0.6-0.5-0.8c-0.2-0.2-0.5-0.4-0.7-0.6s-0.6-0.2-0.9-0.2h-3.6V101.4z"/>
	<path id="XMLID_14_" class="st0" d="M57.3,105.6v1h-7.6V95.2h7.5v1h-6.4v4.1h5.6v0.9h-5.6v4.3H57.3z"/>
	<path id="XMLID_16_" class="st0" d="M61,106.6V95.2h3.9c0.9,0,1.7,0.1,2.4,0.4c0.7,0.3,1.2,0.7,1.7,1.2c0.5,0.5,0.8,1.1,1,1.8
		c0.2,0.7,0.3,1.4,0.3,2.2c0,0.9-0.1,1.6-0.4,2.3c-0.3,0.7-0.6,1.3-1.1,1.8c-0.5,0.5-1,0.9-1.7,1.2c-0.7,0.3-1.4,0.4-2.2,0.4H61z
		 M69.2,100.9c0-0.7-0.1-1.3-0.3-1.9c-0.2-0.6-0.5-1.1-0.8-1.5c-0.4-0.4-0.8-0.7-1.4-1c-0.5-0.2-1.1-0.3-1.8-0.3h-2.7v9.4h2.7
		c0.7,0,1.3-0.1,1.9-0.4c0.5-0.2,1-0.6,1.4-1c0.4-0.4,0.6-0.9,0.8-1.5C69.1,102.1,69.2,101.5,69.2,100.9z"/>
	<path id="XMLID_19_" class="st1" d="M73.2,104.2c0.1,0.1,0.4,0.2,0.8,0.4c0.4,0.1,0.8,0.2,1.2,0.2c0.4,0,0.8-0.1,1.1-0.2
		c0.3-0.2,0.5-0.4,0.6-0.7c0.1-0.3,0.2-0.7,0.3-1.2c0-0.5,0.1-1,0.1-1.7v-5.8h2.2v5.8c0,0.9,0,1.7-0.1,2.4c-0.1,0.7-0.3,1.3-0.6,1.8
		c-0.3,0.5-0.7,0.9-1.3,1.2s-1.3,0.4-2.2,0.4c-1,0-1.8-0.2-2.5-0.7L73.2,104.2z"/>
	<path id="XMLID_21_" class="st1" d="M88.1,106.6c-0.8,0-1.6-0.2-2.3-0.5c-0.7-0.3-1.3-0.8-1.7-1.3c-0.5-0.5-0.9-1.2-1.1-1.8
		c-0.3-0.7-0.4-1.4-0.4-2.1c0-0.8,0.1-1.5,0.4-2.2c0.3-0.7,0.7-1.3,1.2-1.8c0.5-0.5,1.1-1,1.8-1.3c0.7-0.3,1.4-0.5,2.2-0.5
		c0.8,0,1.6,0.2,2.2,0.5c0.7,0.3,1.3,0.8,1.7,1.3c0.5,0.5,0.9,1.2,1.1,1.9c0.3,0.7,0.4,1.4,0.4,2.1c0,0.8-0.1,1.5-0.4,2.2
		c-0.3,0.7-0.7,1.3-1.2,1.8c-0.5,0.5-1.1,1-1.8,1.3S88.9,106.6,88.1,106.6z M84.8,100.9c0,0.5,0.1,1,0.2,1.4s0.4,0.9,0.6,1.2
		c0.3,0.4,0.6,0.6,1,0.8c0.4,0.2,0.9,0.3,1.4,0.3c0.5,0,1-0.1,1.4-0.3s0.8-0.5,1-0.9c0.3-0.4,0.5-0.8,0.6-1.2
		c0.1-0.5,0.2-0.9,0.2-1.4c0-0.5-0.1-1-0.2-1.4c-0.2-0.5-0.4-0.9-0.7-1.2c-0.3-0.4-0.6-0.6-1-0.8s-0.9-0.3-1.4-0.3
		c-0.5,0-1,0.1-1.4,0.3s-0.8,0.5-1,0.9S85.2,99,85,99.5C84.9,99.9,84.8,100.4,84.8,100.9z"/>
	<path id="XMLID_26_" class="st1" d="M101.8,104.7c0.5,0,1-0.1,1.3-0.3c0.4-0.2,0.6-0.5,0.9-0.8c0.2-0.3,0.4-0.7,0.5-1.2
		c0.1-0.4,0.1-0.9,0.1-1.4v-5.8h2.2v5.8c0,0.8-0.1,1.5-0.3,2.2s-0.5,1.3-0.9,1.8s-0.9,0.9-1.5,1.2c-0.6,0.3-1.4,0.4-2.3,0.4
		c-0.9,0-1.7-0.2-2.3-0.5c-0.6-0.3-1.1-0.7-1.5-1.2s-0.7-1.1-0.9-1.8c-0.2-0.7-0.3-1.4-0.3-2.1v-5.8H99v5.8c0,0.5,0,0.9,0.1,1.4
		c0.1,0.4,0.2,0.8,0.5,1.2s0.5,0.6,0.9,0.8S101.3,104.7,101.8,104.7z"/>
	<path id="XMLID_28_" class="st1" d="M110.6,106.6V95.2h5c0.5,0,1,0.1,1.4,0.3c0.4,0.2,0.8,0.5,1.1,0.9c0.3,0.4,0.6,0.8,0.8,1.2
		c0.2,0.5,0.3,0.9,0.3,1.4c0,0.7-0.2,1.4-0.6,2c-0.4,0.6-0.9,1-1.5,1.3l2.6,4.3h-2.5l-2.3-3.8h-2.2v3.8H110.6z M112.8,100.8h2.8
		c0.2,0,0.4,0,0.6-0.1c0.2-0.1,0.3-0.2,0.5-0.4c0.1-0.2,0.2-0.4,0.3-0.6c0.1-0.2,0.1-0.5,0.1-0.7c0-0.3,0-0.5-0.1-0.7
		c-0.1-0.2-0.2-0.4-0.3-0.6c-0.1-0.2-0.3-0.3-0.5-0.4s-0.4-0.1-0.6-0.1h-2.7V100.8z"/>
	<path id="XMLID_32_" class="st1" d="M125,99.3v7.3h-2.2V95.2h1.7l5.9,7.5v-7.4h2.2v11.3h-1.8L125,99.3z"/>
	<path id="XMLID_34_" class="st1" d="M144.5,104.6v1.9h-7.9V95.2h7.7v1.9h-5.5v2.7h4.8v1.8h-4.8v3H144.5z"/>
	<path id="XMLID_36_" class="st1" d="M149.1,95.2l2.8,5.5l2.8-5.5h2.4l-4.1,7.4v4h-2.2v-4l-4.1-7.4H149.1z"/>
	<path id="XMLID_42_" class="st0" d="M159.8,106.6v-2h1.5v2H159.8z"/>
	<path id="XMLID_56_" class="st0" d="M168.7,106.7c-0.7,0-1.2-0.1-1.8-0.3c-0.5-0.2-1-0.5-1.4-0.9c-0.4-0.4-0.7-0.9-0.9-1.4
		s-0.3-1.1-0.3-1.7c0-0.6,0.1-1.1,0.3-1.7s0.5-1,0.9-1.4c0.4-0.4,0.8-0.7,1.4-0.9c0.5-0.2,1.1-0.3,1.8-0.3c0.7,0,1.2,0.1,1.8,0.4
		c0.5,0.2,1,0.5,1.4,0.9c0.4,0.4,0.7,0.8,0.9,1.4c0.2,0.5,0.3,1.1,0.3,1.6c0,0.1,0,0.2,0,0.4s0,0.2,0,0.3h-6.7c0,0.4,0.1,0.7,0.3,1
		c0.1,0.3,0.3,0.6,0.6,0.8c0.2,0.2,0.5,0.4,0.8,0.5c0.3,0.1,0.6,0.2,0.9,0.2c0.2,0,0.5,0,0.7-0.1c0.2-0.1,0.4-0.1,0.6-0.3
		c0.2-0.1,0.4-0.2,0.5-0.4s0.3-0.3,0.4-0.5l1.5,0.4c-0.3,0.6-0.8,1.1-1.4,1.5C170.3,106.5,169.5,106.7,168.7,106.7z M171.2,101.7
		c0-0.4-0.1-0.7-0.3-1c-0.1-0.3-0.3-0.6-0.6-0.8c-0.2-0.2-0.5-0.4-0.8-0.5s-0.6-0.2-0.9-0.2c-0.3,0-0.6,0.1-0.9,0.2
		c-0.3,0.1-0.6,0.3-0.8,0.5c-0.2,0.2-0.4,0.5-0.5,0.8s-0.2,0.6-0.3,1H171.2z"/>
	<path id="XMLID_59_" class="st0" d="M178.2,106.7c-0.4,0-0.8-0.1-1.1-0.2c-0.3-0.1-0.6-0.3-0.9-0.6s-0.4-0.5-0.6-0.8
		c-0.1-0.3-0.2-0.7-0.2-1c0-0.4,0.1-0.8,0.3-1.1c0.2-0.3,0.4-0.6,0.7-0.8c0.3-0.2,0.7-0.4,1.1-0.5c0.4-0.1,0.9-0.2,1.4-0.2
		c0.4,0,0.8,0,1.2,0.1c0.4,0.1,0.7,0.2,1,0.3v-0.6c0-0.6-0.2-1.1-0.5-1.4c-0.4-0.3-0.9-0.5-1.5-0.5c-0.4,0-0.9,0.1-1.3,0.2
		c-0.4,0.2-0.9,0.4-1.3,0.7l-0.5-1.1c1.1-0.7,2.2-1.1,3.4-1.1c1.2,0,2,0.3,2.7,0.9c0.6,0.6,1,1.4,1,2.5v3c0,0.4,0.2,0.6,0.5,0.6v1.5
		c-0.2,0-0.3,0.1-0.4,0.1c-0.1,0-0.2,0-0.4,0c-0.3,0-0.6-0.1-0.8-0.3s-0.3-0.4-0.3-0.7l0-0.5c-0.4,0.5-0.8,0.9-1.4,1.1
		C179.4,106.6,178.8,106.7,178.2,106.7z M178.7,105.4c0.4,0,0.8-0.1,1.2-0.2c0.4-0.2,0.7-0.4,0.9-0.6c0.2-0.2,0.3-0.4,0.3-0.6v-1.1
		c-0.3-0.1-0.6-0.2-1-0.3s-0.7-0.1-1-0.1c-0.6,0-1.1,0.1-1.5,0.4c-0.4,0.3-0.6,0.6-0.6,1.1c0,0.4,0.2,0.8,0.5,1
		C177.8,105.3,178.2,105.4,178.7,105.4z"/>
	<path id="XMLID_62_" class="st0" d="M191.3,99.7c-0.7,0-1.3,0.2-1.8,0.5c-0.5,0.3-0.9,0.7-1.1,1.3v5.1h-1.8v-8.4h1.6v1.9
		c0.3-0.6,0.7-1,1.1-1.4c0.5-0.3,1-0.5,1.5-0.6c0.1,0,0.2,0,0.3,0s0.1,0,0.2,0V99.7z"/>
	<path id="XMLID_64_" class="st0" d="M198.9,106.1c-0.2,0.1-0.5,0.2-0.9,0.4c-0.4,0.1-0.8,0.2-1.3,0.2c-0.3,0-0.5,0-0.8-0.1
		c-0.2-0.1-0.5-0.2-0.6-0.3s-0.3-0.3-0.4-0.6c-0.1-0.2-0.2-0.5-0.2-0.9v-5.2h-1.1v-1.4h1.1v-2.8h1.8v2.8h1.8v1.4h-1.8v4.7
		c0,0.3,0.1,0.5,0.3,0.6c0.2,0.1,0.4,0.2,0.6,0.2c0.2,0,0.5,0,0.7-0.1c0.2-0.1,0.4-0.2,0.5-0.2L198.9,106.1z"/>
	<path id="XMLID_66_" class="st0" d="M209.2,106.6h-1.8v-4.7c0-0.8-0.1-1.3-0.4-1.7c-0.3-0.4-0.7-0.6-1.2-0.6c-0.2,0-0.5,0-0.7,0.1
		c-0.2,0.1-0.5,0.2-0.7,0.4c-0.2,0.2-0.4,0.4-0.6,0.6c-0.2,0.2-0.3,0.5-0.4,0.8v5h-1.8V94.9h1.8v5c0.3-0.6,0.8-1,1.3-1.3
		c0.5-0.3,1.1-0.5,1.8-0.5c0.5,0,1,0.1,1.3,0.3c0.3,0.2,0.6,0.4,0.8,0.7c0.2,0.3,0.3,0.7,0.4,1.1c0.1,0.4,0.1,0.8,0.1,1.3V106.6z"/>
</g>
<g id="XMLID_9_">
		<radialGradient id="XMLID_68_" cx="105.3125" cy="42.1076" r="39.6092" gradientTransform="matrix(4.489659e-011 -1 0.9 4.040693e-011 67.4156 147.4201)" gradientUnits="userSpaceOnUse">
		<stop  offset="0.19" style="stop-color:#F1BD62"/>
		<stop  offset="0.302" style="stop-color:#E0A54C"/>
		<stop  offset="0.4261" style="stop-color:#D2923C"/>
		<stop  offset="0.5539" style="stop-color:#CA8731"/>
		<stop  offset="0.69" style="stop-color:#C7832E"/>
		<stop  offset="1" style="stop-color:#A98D73"/>
	</radialGradient>
	<path id="XMLID_10_" class="st2" d="M136.7,27.7c4.7-0.5,5.7-1.7,5.7-3.3c0-3.6-7.2-4.6-7.1-4.5C140.6,22.5,139.4,25.2,136.7,27.7z"/>
		<radialGradient id="XMLID_69_" cx="105.3125" cy="42.1076" r="39.6092" gradientTransform="matrix(4.489659e-011 -1 0.9 4.040693e-011 67.4156 147.4201)" gradientUnits="userSpaceOnUse">
		<stop  offset="0.19" style="stop-color:#F1BD62"/>
		<stop  offset="0.302" style="stop-color:#E0A54C"/>
		<stop  offset="0.4261" style="stop-color:#D2923C"/>
		<stop  offset="0.5539" style="stop-color:#CA8731"/>
		<stop  offset="0.69" style="stop-color:#C7832E"/>
		<stop  offset="1" style="stop-color:#A98D73"/>
	</radialGradient>
	<path id="XMLID_24_" class="st3" d="M135.7,35.1c2.2,1.9,2.5,5-0.8,7c4.2-0.8,5.4-1.6,5.7-3.3C141,36.3,135.6,35,135.7,35.1z"/>
		<radialGradient id="XMLID_70_" cx="105.3125" cy="42.1076" r="39.6092" gradientTransform="matrix(4.489659e-011 -1 0.9 4.040693e-011 67.4156 147.4201)" gradientUnits="userSpaceOnUse">
		<stop  offset="0.19" style="stop-color:#F1BD62"/>
		<stop  offset="0.302" style="stop-color:#E0A54C"/>
		<stop  offset="0.4261" style="stop-color:#D2923C"/>
		<stop  offset="0.5539" style="stop-color:#CA8731"/>
		<stop  offset="0.69" style="stop-color:#C7832E"/>
		<stop  offset="1" style="stop-color:#A98D73"/>
	</radialGradient>
	<path id="XMLID_25_" class="st4" d="M77.6,54.5C77.6,54.5,77.6,54.5,77.6,54.5C77.4,54.4,77.4,54.4,77.6,54.5z"/>
		<radialGradient id="XMLID_71_" cx="105.3125" cy="42.1076" r="39.6092" gradientTransform="matrix(4.489659e-011 -1 0.9 4.040693e-011 67.4156 147.4201)" gradientUnits="userSpaceOnUse">
		<stop  offset="0.19" style="stop-color:#F1BD62"/>
		<stop  offset="0.302" style="stop-color:#E0A54C"/>
		<stop  offset="0.4261" style="stop-color:#D2923C"/>
		<stop  offset="0.5539" style="stop-color:#CA8731"/>
		<stop  offset="0.69" style="stop-color:#C7832E"/>
		<stop  offset="1" style="stop-color:#A98D73"/>
	</radialGradient>
	<path id="XMLID_38_" class="st5" d="M95,65.7c0,0-1.6-2-3.8-3.5c-1.8-1.2-3.9-2.2-5.9-1.6c-1.5,0.4-0.7,2,0.2,3
		c0.5,0.6,2.1,1.5,3,1.8C92.3,66.7,95,65.7,95,65.7z"/>
		<radialGradient id="XMLID_72_" cx="105.3125" cy="42.1076" r="39.6092" gradientTransform="matrix(4.489659e-011 -1 0.9 4.040693e-011 67.4156 147.4201)" gradientUnits="userSpaceOnUse">
		<stop  offset="0.19" style="stop-color:#F1BD62"/>
		<stop  offset="0.302" style="stop-color:#E0A54C"/>
		<stop  offset="0.4261" style="stop-color:#D2923C"/>
		<stop  offset="0.5539" style="stop-color:#CA8731"/>
		<stop  offset="0.69" style="stop-color:#C7832E"/>
		<stop  offset="1" style="stop-color:#A98D73"/>
	</radialGradient>
	<path id="XMLID_41_" class="st6" d="M139.2,33.4c-1.1-0.7-3.4-1.8-3.4-1.8s1.4-0.4,3.5-1.9c2.2-1.5,3.6-2.8,3.6-2.8s-4.6,2-9.7,1.7
		c-4.2-0.1-8.6-2.9-12.8-5.3c5.3-3,9.2-4.7,15.5-4c3.5,0.4,5.9,1.8,6.8,2.5c0.1,0.1-1-2-3.5-3.6c-5.1-3.3-12.5-2.2-17.2-0.4
		c-2,0.8-6,2.8-6,2.8l-6.9-5.7c0,0,6.9-7.8,18.3-8.6c2.8-0.2,7.6,1.4,7.7,1.4c0.1,0-3.4-3.2-8.7-3.5c-11.1-0.7-20.2,8.5-20.2,8.5
		s-7.1-9.2-19.5-8.4c-6.3,0.4-9.3,3.3-9.3,3.3s4-1.7,8.2-1.6c11,0.2,16.8,9.2,16.8,9.2l-6.7,5.6c0,0-6.2-5.1-14.1-4.9
		c-6.8,0.2-9.3,2.4-12,5.7c3.2-2.5,7.3-2.7,10-2.6c6.2,0.2,11.6,4.9,11.6,4.9s-4.3,4.2-12.8,4.4c-2.1,0.1-5.6,0-9.1-2.2
		c2.4,3.6,7.5,5.6,7.5,5.6s-4.7,0.3-6.1,5c0.8-0.9,1.8-2.1,5.6-2.5c5.5-0.6,10.2,2,14.6,4.8c-4.1,2.2-7.1,3.8-11.8,3.9
		c-3.1,0.1-7.6-2.4-7.4-2.4c1.1,2.5,4.6,4.3,7.8,4.9c4.7,0.8,9-0.3,11.6-1.3c1.6-0.6,4.3-2,4.3-2l7.1,5.4c0,0-1.6,1.1-2.9,2.1
		c-1.3,1-2.9,1.9-2.9,1.9s-7.2-5.6-14.2-4.9c-2.6,0.3-6.8,1.4-6.7,4.8c1-0.9,2.3-1.8,4.1-1.9c1.7-0.2,3.8,0.2,5.8,0.8
		C88,51.2,92,54,92,54c-2.8,1.1-6.5,2.3-9.3,2.2c-2.2-0.1-4.5-0.6-5.4-1.6c4.3,4.9,8.2,5.7,17.3,2.2c2.1,1.9,4.4,3.4,6.5,5.3
		c-3.6,2.7-5.6,4.9-9.8,4.6c-3.6-0.3-5.6-2.3-5.6-2.1c0,0,2.9,4,7.4,4.6c4.2,0.6,11.6-4.3,11.6-4.3s6.5,4.6,11.3,5.3
		c3.5,0.5,7.6-2.3,10.3-5.1c0,0-1.8,0.7-4.3,1.2c-4.8,0.9-8.3-1.6-12.8-4.3c2-1.7,6.7-5.4,6.7-5.4s6.9,3,10.8,2.7
		c5.3-0.4,9-4.7,9-4.7s-3.7,2-8,1.7s-7.6-2.5-7.6-2.8c3.4-2.1,7-3.9,11-4c1.7,0,4.6,0.5,5.6,1.3c0,0-0.3-1.1-2.2-2.6
		c-1.7-1.3-4.7-2.3-7.8-1.8c-6.6,1-11.8,5.1-11.8,5.1l-5.6-4.3c0,0,5.2-3.7,7.5-5.5c4.7,3.3,11.7,4.3,15.6,3.3
		c2.3-0.6,5.3-1.9,7.9-3.5c-5.6,1.6-9.2,1.4-12.9,0.7c-3.6-0.7-6.9-2.8-6.9-2.8c2.9-1.9,7.4-5.5,15.6-5c4,0.2,5.9,2.6,5.9,2.6
		S141.6,35.1,139.2,33.4z M105.9,17.8l6.6,5.5l-6.6,5.1l-6.6-5.1L105.9,17.8z M85.1,31.7c4.6-1.3,6.7-2.8,10.3-5.2
		c2.1,1.6,4.3,3.2,6.9,5.1c-2.4,1.6-7,5.1-7,5.1S91,33.2,85.1,31.7z M111.4,54.3l-5.5,4.7l-5.6-4.7c0,0,2.9-2,5.5-4
		C107.8,51.7,111.4,54.3,111.4,54.3z M105.9,44.8c-2.1-1.7-4.2-3.5-6.5-5.3c2.5-1.9,6.5-5.2,6.5-5.2l6.5,5.1
		C112.4,39.4,108.2,43,105.9,44.8z M116.4,36.6l-1.1-0.9c0,0-3.8-2.7-5.9-4.2c2.4-1.8,4.7-3.5,6.9-5.2c3.7,2.6,5.7,4,9.8,5.1
		C121.6,32.6,116.4,36.6,116.4,36.6z"/>
		<radialGradient id="XMLID_73_" cx="105.3125" cy="42.1076" r="39.6092" gradientTransform="matrix(4.489659e-011 -1 0.9 4.040693e-011 67.4156 147.4201)" gradientUnits="userSpaceOnUse">
		<stop  offset="0.19" style="stop-color:#F1BD62"/>
		<stop  offset="0.302" style="stop-color:#E0A54C"/>
		<stop  offset="0.4261" style="stop-color:#D2923C"/>
		<stop  offset="0.5539" style="stop-color:#CA8731"/>
		<stop  offset="0.69" style="stop-color:#C7832E"/>
		<stop  offset="1" style="stop-color:#A98D73"/>
	</radialGradient>
	<path id="XMLID_48_" class="st7" d="M130.9,50.3c1.8,0.7,3.6,3.3,1.3,5.1c2.6-1.1,4-1.8,4.1-3C136.3,50.6,130.8,50.2,130.9,50.3z"/>
		<radialGradient id="XMLID_74_" cx="105.3125" cy="42.1076" r="39.6092" gradientTransform="matrix(4.489659e-011 -1 0.9 4.040693e-011 67.4156 147.4201)" gradientUnits="userSpaceOnUse">
		<stop  offset="0.19" style="stop-color:#F1BD62"/>
		<stop  offset="0.302" style="stop-color:#E0A54C"/>
		<stop  offset="0.4261" style="stop-color:#D2923C"/>
		<stop  offset="0.5539" style="stop-color:#CA8731"/>
		<stop  offset="0.69" style="stop-color:#C7832E"/>
		<stop  offset="1" style="stop-color:#A98D73"/>
	</radialGradient>
	<path id="XMLID_49_" class="st8" d="M74.6,20.6c0.5-0.5-4.8,0.5-4.8,3.7c0,1.8,2.4,2.4,4.8,3.1C70.5,23.9,73.4,21.2,74.6,20.6z"/>
		<radialGradient id="XMLID_75_" cx="105.3125" cy="42.1076" r="39.6092" gradientTransform="matrix(4.489659e-011 -1 0.9 4.040693e-011 67.4156 147.4201)" gradientUnits="userSpaceOnUse">
		<stop  offset="0.19" style="stop-color:#F1BD62"/>
		<stop  offset="0.302" style="stop-color:#E0A54C"/>
		<stop  offset="0.4261" style="stop-color:#D2923C"/>
		<stop  offset="0.5539" style="stop-color:#CA8731"/>
		<stop  offset="0.69" style="stop-color:#C7832E"/>
		<stop  offset="1" style="stop-color:#A98D73"/>
	</radialGradient>
	<path id="XMLID_50_" class="st9" d="M77.6,42.2c-4.6-3.1-3.4-5.8-2.5-7c0,0-4.1,0.6-3.8,3.3C71.5,40.5,75.9,41.7,77.6,42.2z"/>
		<radialGradient id="XMLID_76_" cx="105.3125" cy="42.1076" r="39.6092" gradientTransform="matrix(4.489659e-011 -1 0.9 4.040693e-011 67.4156 147.4201)" gradientUnits="userSpaceOnUse">
		<stop  offset="0.19" style="stop-color:#F1BD62"/>
		<stop  offset="0.302" style="stop-color:#E0A54C"/>
		<stop  offset="0.4261" style="stop-color:#D2923C"/>
		<stop  offset="0.5539" style="stop-color:#CA8731"/>
		<stop  offset="0.69" style="stop-color:#C7832E"/>
		<stop  offset="1" style="stop-color:#A98D73"/>
	</radialGradient>
	<path id="XMLID_51_" class="st10" d="M80.9,49.9c0,0-4.4,0.1-4.3,2.7c0,0.5,0.9,1.5,1.7,2c1.3,0.8,2.7,1,2.7,1s-2.5-1.4-2.2-3.2
		C79,51.3,80.9,49.9,80.9,49.9z"/>
		<radialGradient id="XMLID_77_" cx="105.3125" cy="42.1076" r="39.6092" gradientTransform="matrix(4.489659e-011 -1 0.9 4.040693e-011 67.4156 147.4201)" gradientUnits="userSpaceOnUse">
		<stop  offset="0.19" style="stop-color:#F1BD62"/>
		<stop  offset="0.302" style="stop-color:#E0A54C"/>
		<stop  offset="0.4261" style="stop-color:#D2923C"/>
		<stop  offset="0.5539" style="stop-color:#CA8731"/>
		<stop  offset="0.69" style="stop-color:#C7832E"/>
		<stop  offset="1" style="stop-color:#A98D73"/>
	</radialGradient>
	<path id="XMLID_52_" class="st11" d="M102.4,72c-3.2-1.5-4.5-2.8-4.5-2.8s-0.7,0.2-2,0.6c-1.1,0.3-2.7,0.4-2.7,0.4s4.2,2.6,7.2,3.6
		c4,1.4,7,0.9,11.3-0.4C107.9,73.7,105.1,73.2,102.4,72z"/>
		<radialGradient id="XMLID_78_" cx="105.3125" cy="42.1076" r="39.6092" gradientTransform="matrix(4.489659e-011 -1 0.9 4.040693e-011 67.4156 147.4201)" gradientUnits="userSpaceOnUse">
		<stop  offset="0.19" style="stop-color:#F1BD62"/>
		<stop  offset="0.302" style="stop-color:#E0A54C"/>
		<stop  offset="0.4261" style="stop-color:#D2923C"/>
		<stop  offset="0.5539" style="stop-color:#CA8731"/>
		<stop  offset="0.69" style="stop-color:#C7832E"/>
		<stop  offset="1" style="stop-color:#A98D73"/>
	</radialGradient>
	<path id="XMLID_53_" class="st12" d="M123.6,61c-1.4-0.8-2.9-1.5-4.3-2.2c-0.5-0.2-1.1-0.4-1.7-0.3c-1.1,0.1-2.2,0.2-3.2,0.5
		c-0.4,0.1-1,0.6-1.1,1.1c-0.1,0.4,0.2,1.1,0.5,1.4c0.7,0.7,1.4,1.4,2.3,1.7c0.8,0.4,1.9,0.7,2.6,0.4c2.3-0.7,3.3-1,3.8,1.8l3.5-0.9
		C126,62.9,124.5,61.5,123.6,61z"/>
		<radialGradient id="XMLID_79_" cx="105.3125" cy="42.1076" r="39.6092" gradientTransform="matrix(4.489659e-011 -1 0.9 4.040693e-011 67.4156 147.4201)" gradientUnits="userSpaceOnUse">
		<stop  offset="0.19" style="stop-color:#F1BD62"/>
		<stop  offset="0.302" style="stop-color:#E0A54C"/>
		<stop  offset="0.4261" style="stop-color:#D2923C"/>
		<stop  offset="0.5539" style="stop-color:#CA8731"/>
		<stop  offset="0.69" style="stop-color:#C7832E"/>
		<stop  offset="1" style="stop-color:#A98D73"/>
	</radialGradient>
	<path id="XMLID_54_" class="st13" d="M79.5,14.7c1.8-0.5,3.3-1.5,4.5-1.7c1.3-0.2,2.1,0.2,3.4-0.4c0.9-0.4,1.6-1.1,2.3-1.7
		c0.3-0.3,0.6-1,0.5-1.4c-0.1-0.4-0.6-0.9-1.1-1.1C88.2,8.2,87.1,8,86,8c-0.5,0-1.2,0.1-1.7,0.3c-1.3,0.6-2.5,1.1-3.6,2
		c-0.6,0.6-2.7,2.2-3.6,1.1c-1.2-1.5,2.2-3.5,2.2-3.5s-5.6,1.9-6,4.7C72.9,15.5,76.6,15.6,79.5,14.7z"/>
		<radialGradient id="XMLID_80_" cx="105.3125" cy="42.1076" r="39.6092" gradientTransform="matrix(4.489659e-011 -1 0.9 4.040693e-011 67.4156 147.4201)" gradientUnits="userSpaceOnUse">
		<stop  offset="0.19" style="stop-color:#F1BD62"/>
		<stop  offset="0.302" style="stop-color:#E0A54C"/>
		<stop  offset="0.4261" style="stop-color:#D2923C"/>
		<stop  offset="0.5539" style="stop-color:#CA8731"/>
		<stop  offset="0.69" style="stop-color:#C7832E"/>
		<stop  offset="1" style="stop-color:#A98D73"/>
	</radialGradient>
	<path id="XMLID_55_" class="st14" d="M131.6,8c3.1,1.1,3.1,2.4,3.4,3.2c0,1.2-1.2,1.9-3.2,2c-2.9,0.2-5.6-0.2-8.6-0.9
		c3.3,1.8,7.5,2.7,11,2.4c2.2-0.2,4.3-0.8,4.5-2.3C139.2,8.8,131.6,7.9,131.6,8z"/>
</g>
</svg>